<?xml version="1.0" encoding="UTF-8"?>
<svg id="Layer_1" data-name="Layer 1" xmlns="http://www.w3.org/2000/svg" viewBox="0 0 485.98 136.9">
  <defs>
    <style>
      .cls-1 {
        fill: #fff;
        stroke-width: 0px;
      }
    </style>
  </defs>
  <g>
    <path class="cls-1" d="M214.57,5.48h12.44l16.66,40.67h.66l16.66-40.67h12.44v56.13h-9.76V23.05h-.52l-15.51,38.4h-7.29l-15.51-38.48h-.52v38.64h-9.76V5.48Z"/>
    <path class="cls-1" d="M302.44,61.61c-4.11,0-7.67-.9-10.69-2.71-3.01-1.81-5.35-4.34-7-7.59-1.65-3.25-2.48-7.05-2.48-11.4s.83-8.16,2.48-11.43c1.65-3.27,3.99-5.81,7-7.62,3.01-1.81,6.58-2.71,10.69-2.71s7.67.9,10.69,2.71c3.01,1.81,5.35,4.35,7,7.62,1.65,3.27,2.48,7.08,2.48,11.43s-.83,8.15-2.48,11.4c-1.65,3.25-3.99,5.78-7,7.59-3.01,1.81-6.58,2.71-10.69,2.71ZM302.49,53.66c2.23,0,4.09-.62,5.59-1.85,1.5-1.23,2.62-2.89,3.36-4.97.74-2.08,1.11-4.4,1.11-6.96s-.37-4.91-1.11-7c-.74-2.09-1.86-3.76-3.36-5-1.5-1.24-3.36-1.86-5.59-1.86s-4.18.62-5.69,1.86c-1.51,1.24-2.63,2.91-3.37,5-.74,2.09-1.11,4.43-1.11,7s.37,4.88,1.11,6.96c.74,2.08,1.86,3.74,3.37,4.97,1.51,1.23,3.4,1.85,5.69,1.85Z"/>
    <path class="cls-1" d="M328.69,61.61l11.76-21.6h9.78l-11.78,21.6h-9.76ZM355.88,61.61V27.57h-8.99c-2.28,0-4.04.53-5.26,1.59-1.22,1.06-1.83,2.38-1.81,3.95-.02,1.57.56,2.87,1.73,3.89,1.17,1.02,2.84,1.53,5.02,1.53h12.44v7.24h-12.44c-3.36,0-6.27-.53-8.72-1.59-2.45-1.06-4.33-2.56-5.65-4.49-1.32-1.94-1.97-4.2-1.97-6.8s.67-5.06,2.01-7.06c1.34-2,3.26-3.55,5.76-4.66s5.46-1.66,8.89-1.66h18.28v42.1h-9.29Z"/>
    <path class="cls-1" d="M370.46,27.65v-8.14h36.83v8.14h-13.62v33.96h-9.59V27.65h-13.62Z"/>
    <path class="cls-1" d="M425.58,61.61c-2.67,0-5.07-.48-7.19-1.44-2.13-.96-3.81-2.38-5.04-4.26-1.23-1.88-1.85-4.2-1.85-6.96,0-2.37.44-4.34,1.32-5.89.88-1.55,2.07-2.8,3.59-3.73,1.52-.93,3.23-1.64,5.14-2.12,1.91-.48,3.89-.84,5.93-1.06,2.47-.26,4.47-.49,6-.7,1.53-.21,2.65-.54,3.36-.99.7-.45,1.06-1.15,1.06-2.1v-.16c0-2.06-.61-3.66-1.84-4.8-1.22-1.13-2.99-1.7-5.29-1.7-2.43,0-4.35.53-5.77,1.59-1.42,1.06-2.37,2.31-2.86,3.75l-9.26-1.32c.73-2.56,1.94-4.7,3.62-6.43,1.68-1.73,3.74-3.02,6.17-3.89,2.43-.87,5.12-1.3,8.06-1.3,2.03,0,4.05.24,6.06.71,2.01.48,3.85,1.26,5.51,2.34,1.66,1.09,3,2.56,4.02,4.43,1.01,1.86,1.52,4.19,1.52,6.99v28.17h-9.54v-5.78h-.33c-.6,1.17-1.45,2.26-2.54,3.28-1.09,1.01-2.45,1.83-4.08,2.44-1.64.61-3.55.92-5.74.92ZM428.15,54.32c1.99,0,3.72-.4,5.18-1.19,1.46-.79,2.59-1.85,3.38-3.17s1.19-2.75,1.19-4.3v-4.96c-.31.26-.84.49-1.58.71-.74.22-1.57.41-2.48.58-.91.16-1.82.31-2.71.44-.9.13-1.67.24-2.33.33-1.48.2-2.8.53-3.97.99-1.17.46-2.09,1.09-2.77,1.9s-1.01,1.86-1.01,3.14c0,1.83.67,3.21,2,4.14,1.33.93,3.03,1.4,5.1,1.4Z"/>
    <g>
      <path class="cls-1" d="M259.3,75.28v56.13h-10.09v-47.69h-24.56v47.69h-10.09v-56.13h44.73Z"/>
      <path class="cls-1" d="M289.37,131.41c-4.11,0-7.67-.9-10.69-2.71-3.01-1.81-5.35-4.34-7-7.59-1.65-3.25-2.48-7.05-2.48-11.4s.83-8.16,2.48-11.43c1.65-3.27,3.99-5.81,7-7.62,3.01-1.81,6.58-2.71,10.69-2.71s7.67.9,10.69,2.71c3.01,1.81,5.35,4.35,7,7.62,1.65,3.27,2.48,7.08,2.48,11.43s-.83,8.15-2.48,11.4c-1.65,3.25-3.99,5.78-7,7.59-3.01,1.81-6.58,2.71-10.69,2.71ZM289.42,123.46c2.23,0,4.09-.62,5.59-1.85,1.5-1.23,2.62-2.89,3.36-4.97.74-2.08,1.11-4.4,1.11-6.96s-.37-4.91-1.11-7c-.74-2.09-1.86-3.76-3.36-5-1.5-1.24-3.36-1.86-5.59-1.86s-4.18.62-5.69,1.86c-1.51,1.24-2.63,2.91-3.37,5-.74,2.09-1.11,4.43-1.11,7s.37,4.88,1.11,6.96c.74,2.08,1.86,3.74,3.37,4.97,1.51,1.23,3.4,1.85,5.69,1.85Z"/>
      <path class="cls-1" d="M317.92,131.41v-42.1h9.92v16.99h3.62l12.66-16.99h11.95l-15.59,20.66,15.76,21.43h-12l-11.54-15.87h-4.85v15.87h-9.92Z"/>
      <path class="cls-1" d="M373.97,131.41c-2.67,0-5.07-.48-7.19-1.44-2.13-.96-3.81-2.38-5.04-4.26-1.23-1.88-1.85-4.2-1.85-6.96,0-2.37.44-4.34,1.32-5.89.88-1.55,2.07-2.8,3.59-3.73,1.52-.93,3.23-1.64,5.14-2.12,1.91-.48,3.89-.84,5.93-1.06,2.47-.26,4.47-.49,6-.7,1.53-.21,2.65-.54,3.36-.99.7-.45,1.06-1.15,1.06-2.1v-.16c0-2.06-.61-3.66-1.84-4.8-1.22-1.13-2.99-1.7-5.29-1.7-2.43,0-4.35.53-5.77,1.59-1.42,1.06-2.37,2.31-2.86,3.75l-9.26-1.32c.73-2.56,1.94-4.7,3.62-6.43,1.68-1.73,3.74-3.02,6.17-3.89,2.43-.87,5.12-1.3,8.06-1.3,2.03,0,4.05.24,6.06.71,2.01.48,3.85,1.26,5.51,2.34,1.66,1.09,3,2.56,4.02,4.43,1.01,1.86,1.52,4.19,1.52,6.99v28.17h-9.54v-5.78h-.33c-.6,1.17-1.45,2.26-2.54,3.28-1.09,1.01-2.45,1.83-4.08,2.44-1.64.61-3.55.92-5.74.92ZM376.55,124.12c1.99,0,3.72-.4,5.18-1.19,1.46-.79,2.59-1.85,3.38-3.17.79-1.32,1.19-2.75,1.19-4.3v-4.96c-.31.26-.84.49-1.58.71-.74.22-1.57.41-2.48.58-.91.16-1.82.31-2.71.44-.9.13-1.67.24-2.33.33-1.48.2-2.8.53-3.97.99-1.17.46-2.09,1.09-2.77,1.9s-1.01,1.86-1.01,3.14c0,1.83.67,3.21,2,4.14,1.33.93,3.03,1.4,5.1,1.4Z"/>
      <path class="cls-1" d="M415.76,89.32v42.1h-9.56v-42.1h9.56ZM435.11,106.25v8.14h-22.42v-8.14h22.42ZM441.61,89.32v42.1h-9.54v-42.1h9.54Z"/>
      <path class="cls-1" d="M463.75,131.41c-2.67,0-5.07-.48-7.19-1.44-2.13-.96-3.81-2.38-5.04-4.26-1.23-1.88-1.85-4.2-1.85-6.96,0-2.37.44-4.34,1.32-5.89.88-1.55,2.07-2.8,3.59-3.73,1.52-.93,3.23-1.64,5.14-2.12,1.91-.48,3.89-.84,5.93-1.06,2.47-.26,4.47-.49,6-.7,1.53-.21,2.65-.54,3.36-.99.7-.45,1.05-1.15,1.05-2.1v-.16c0-2.06-.61-3.66-1.84-4.8-1.22-1.13-2.99-1.7-5.29-1.7-2.43,0-4.35.53-5.77,1.59-1.42,1.06-2.37,2.31-2.86,3.75l-9.26-1.32c.73-2.56,1.94-4.7,3.62-6.43,1.68-1.73,3.74-3.02,6.17-3.89,2.43-.87,5.12-1.3,8.06-1.3,2.03,0,4.05.24,6.06.71,2.01.48,3.85,1.26,5.51,2.34,1.66,1.09,3,2.56,4.01,4.43,1.01,1.86,1.52,4.19,1.52,6.99v28.17h-9.54v-5.78h-.33c-.6,1.17-1.45,2.26-2.54,3.28-1.09,1.01-2.45,1.83-4.08,2.44-1.63.61-3.55.92-5.74.92ZM466.33,124.12c1.99,0,3.72-.4,5.18-1.19,1.46-.79,2.59-1.85,3.38-3.17s1.19-2.75,1.19-4.3v-4.96c-.31.26-.84.49-1.58.71-.74.22-1.57.41-2.48.58-.91.16-1.82.31-2.71.44-.9.13-1.67.24-2.33.33-1.48.2-2.8.53-3.97.99-1.17.46-2.09,1.09-2.77,1.9s-1.01,1.86-1.01,3.14c0,1.83.67,3.21,2,4.14,1.33.93,3.03,1.4,5.1,1.4Z"/>
    </g>
  </g>
  <g>
    <path class="cls-1" d="M174.37,14.3v95.94c0,14.72-10.31,26.65-23.02,26.65H23.02c-1.85,0-3.64-.25-5.36-.73-3.22-.88-6.17-2.55-8.7-4.82-5.45-4.87-8.96-12.51-8.96-21.1V13.88c0-.7.52-1.19,1.11-1.28.33-.05.68.03.98.27l35.61,28.2c.4.32.58.84.45,1.34l-4.92,18.73c-.77,2.93-.15,5.97,1.69,8.36,1.82,2.36,4.69,3.77,7.67,3.77,2.08,0,4.07-.66,5.74-1.9l13.51-9.98c.47-.35,1.11-.34,1.57.03l23,18.21c.7.56,1.7.55,2.4,0L172.27,13.29c.85-.67,2.1-.07,2.1,1.01Z"/>
    <path class="cls-1" d="M171.47,2.3l-83.46,66.33c-.47.37-1.13.37-1.6,0l-23.15-18.33c-.46-.36-1.1-.37-1.57-.03l-18.73,13.84c-.49.36-1.16-.09-1.01-.68l6.35-24.16c.11-.43.45-.78.88-.91l89.63-26.91-105.49,14.63c-.35.05-.7-.05-.98-.27L2.64,2.3c-.95-.76-.42-2.3.81-2.3h167.22c1.22,0,1.75,1.54.8,2.3Z"/>
  </g>
</svg>